<svg id="layer_1" data-name="layer 1" xmlns="http://www.w3.org/2000/svg" viewBox="0 0 425.3 478.9">
    <defs>
        <style>.cls-1{fill:#FCF8FF;}.cls-2{fill:#5e36e0;}.cls-3{fill:#4930d8;}</style>
    </defs>
    <path class="cls-1" d="M46.05,386.67c3,0,5.25.49,6.65,1.48a5.47,5.47,0,0,1,2.1,4.8l-.13,2.83a56.37,56.37,0,0,0-.37,7.15v26.59q0,14-7.39,20.51t-23.76,6.46q-13.3,0-18.22-3.88T0,441.71a51.85,51.85,0,0,1,1.23-9.23c.57-3.2.9-5.34,1-6.4q2.46,8.49,6.71,11.51t10.89,3q6.66,0,9.67-2.58c2-1.73,3.22-4.84,3.63-9.36q.38-3.69.62-11.82T34,400.71a15.77,15.77,0,0,0-1.1-6.77,6.29,6.29,0,0,0-4.31-3.08,25.18,25.18,0,0,1,8.06-3.08A43.51,43.51,0,0,1,46.05,386.67Z"/>
    <path class="cls-1" d="M126,450.33a12.93,12.93,0,0,1-6.15,4.31,26.89,26.89,0,0,1-8.5,1.23q-4.8,0-7.26-1.41a7.27,7.27,0,0,1-3.33-4.74A22.57,22.57,0,0,1,92.53,455a30.44,30.44,0,0,1-10.16,1.54q-9.23,0-14.09-3.32t-4.87-10a13.9,13.9,0,0,1,3.2-9.23A20.6,20.6,0,0,1,75.48,428,10.91,10.91,0,0,0,71.66,425a17.8,17.8,0,0,1-3.88-2.83,5.53,5.53,0,0,1-1.29-3.95q0-6.15,7.51-9.41a44.87,44.87,0,0,1,18-3.27q28.56,0,28.57,23.64c0,1.32-.09,3.29-.25,5.91q-.26,4.44-.25,6.78c0,3,.39,5.19,1.17,6.46S123.58,450.25,126,450.33ZM75.48,428a48.2,48.2,0,0,1,16.62-2.58,49,49,0,0,1,8.74.74,9.73,9.73,0,0,0-.73-4.06Q96,419.31,88.9,419.3q-6,0-9.36,2.1A9.11,9.11,0,0,0,75.48,428Zm25,9.49a14.57,14.57,0,0,0-8.13-2.1q-8,0-8,5.91a6.57,6.57,0,0,0,.61,3,6.74,6.74,0,0,0,1.48.12,20.1,20.1,0,0,0,7.45-1.6A14.48,14.48,0,0,0,100.48,437.53Z"/>
    <path class="cls-1" d="M189.5,412.16q0,5.79-6.83,17.55A160.56,160.56,0,0,1,166,453a138.4,138.4,0,0,1-19.27,18.84q-9,7-17.67,7a13.07,13.07,0,0,1-8.86-3,9,9,0,0,1-3.45-7,9.29,9.29,0,0,1,.74-3.64,40.86,40.86,0,0,1,2.21-4.37,32.67,32.67,0,0,0,2.1-4.19,12.26,12.26,0,0,0,.86-3.81c1.64,3.37,3.22,5.58,4.74,6.65a9.7,9.7,0,0,0,5.72,1.6,14.61,14.61,0,0,0,6.72-1.73q3.38-1.71,9.05-7.14a12.46,12.46,0,0,0-1-1.47,128.17,128.17,0,0,1-8.37-15q-4.06-8.43-6.16-13.85-2.1-5.79-4.12-7.69a8.81,8.81,0,0,0-5.61-2.16q10.35-6,19.83-6,4.06,0,6,1.6t3.51,6.28q4.55,13.17,8.74,22.53,6.65-10.95,6.65-18.71c0-2.06-.45-3.47-1.35-4.25s-2.55-1.17-4.93-1.17a43.74,43.74,0,0,1,9.85-4.87,28.75,28.75,0,0,1,8.74-1.41q4.8,0,6.84,1.54A5.29,5.29,0,0,1,189.5,412.16Z"/>
    <path class="cls-1" d="M209.57,383.1c3,0,5.29.52,6.77,1.54s2.22,2.77,2.22,5.23c0,1.07,0,2.06-.13,3l-.24,6.4-.62,44.58a9.7,9.7,0,0,0,1,4.8c.65,1.15,2,1.72,3.94,1.72q-6.17,5.55-16,5.54c-3,0-5.25-.49-6.65-1.47s-2.09-2.79-2.09-5.42q0-6.9.49-23.89.62-15.15.62-27.95,0-4.68-1.3-6.71c-.86-1.36-2.56-2-5.11-2a27.68,27.68,0,0,1,8.25-4A31.62,31.62,0,0,1,209.57,383.1Z"/>
    <path class="cls-1" d="M291.82,450.33a12.93,12.93,0,0,1-6.15,4.31,26.94,26.94,0,0,1-8.5,1.23q-4.8,0-7.26-1.41a7.24,7.24,0,0,1-3.33-4.74,22.65,22.65,0,0,1-8.19,5.23,30.44,30.44,0,0,1-10.16,1.54q-9.22,0-14.1-3.32t-4.86-10a13.9,13.9,0,0,1,3.2-9.23,20.6,20.6,0,0,1,8.87-5.92,10.91,10.91,0,0,0-3.82-3.07,17.55,17.55,0,0,1-3.88-2.83,5.53,5.53,0,0,1-1.29-3.95q0-6.15,7.51-9.41a44.87,44.87,0,0,1,18-3.27q28.56,0,28.57,23.64c0,1.32-.09,3.29-.25,5.91q-.26,4.44-.25,6.78c0,3,.39,5.19,1.17,6.46S289.44,450.25,291.82,450.33ZM241.34,428A48.2,48.2,0,0,1,258,425.46a49.1,49.1,0,0,1,8.74.74,9.73,9.73,0,0,0-.73-4.06q-4.07-2.83-11.21-2.84-6,0-9.36,2.1A9.08,9.08,0,0,0,241.34,428Zm25,9.49a14.51,14.51,0,0,0-8.12-2.1q-8,0-8,5.91a6.57,6.57,0,0,0,.62,3,6.74,6.74,0,0,0,1.48.12,20.14,20.14,0,0,0,7.45-1.6A14.46,14.46,0,0,0,266.33,437.53Z"/>
    <path class="cls-1" d="M365.21,449.84a19.36,19.36,0,0,1-7.88,4.68,28.83,28.83,0,0,1-8.38,1.35q-5.65,0-7.88-2.64c-1.47-1.77-2.21-4.7-2.21-8.81,0-2.62.2-6,.61-10.09.33-4.44.5-7.39.5-8.87a14.37,14.37,0,0,0-.87-5.79h-.73q-3.94,0-8.32,3.14a24.93,24.93,0,0,0-7.32,8.68,25.78,25.78,0,0,0-3,12.32,7.84,7.84,0,0,0,1.17,4.74q1.17,1.53,4.62,1.17a22.15,22.15,0,0,1-8.68,4.86,36.75,36.75,0,0,1-9.91,1.29q-4.68,0-6.41-1.47t-1.23-6q1.11-11.7,1.11-24.26a47.06,47.06,0,0,0-.49-7.94,6.92,6.92,0,0,0-1.73-3.81,6.79,6.79,0,0,0-3.81-1.54,27,27,0,0,1,8.06-3.51,34.89,34.89,0,0,1,8.81-1.17q4.43,0,6.71,1.47t2.27,4.93l-.12,2.71a40.43,40.43,0,0,1,11-7.08,27.87,27.87,0,0,1,10.41-2q9.36,0,13.91,5.17T360,426.08c0,1.31-.09,3.85-.25,7.63s-.25,6.45-.25,8q0,4.56,1.11,6.47C361.39,449.45,362.91,450,365.21,449.84Z"/>
    <path class="cls-1" d="M425.3,444.18q0,6-3.39,9.23t-10,3.2a95.53,95.53,0,0,1-11.32-1.11,135.31,135.31,0,0,0-19-1.72,38.84,38.84,0,0,0-8.37.8,19.14,19.14,0,0,0-6.89,3.14l-.87.62a43,43,0,0,1,5.79-11.89Q375,441,381.71,433.22a123.72,123.72,0,0,0,10.34-13.06,70.22,70.22,0,0,0-7.51-.37c-4.43,0-7.74.5-9.91,1.48a11,11,0,0,0-5.24,5.67,52.87,52.87,0,0,1,1.05-12,10.63,10.63,0,0,1,3.94-6.34q2.89-2.08,8.56-2.09a73.44,73.44,0,0,1,8.25.61,142.87,142.87,0,0,0,16.25,1.11,44.38,44.38,0,0,0,8.13-.68,18.6,18.6,0,0,0,7-2.89,46.88,46.88,0,0,1-6.65,14.22,144.19,144.19,0,0,1-11.45,13.86q-5.67,6.15-7.27,8.25l3.2.36q5.91.5,8.25.5,3.94,0,5.73-1.3t1.78-5.35a7.22,7.22,0,0,0-1.23-4.31,11.83,11.83,0,0,1,7.51,4.12Q425.3,438.39,425.3,444.18Z"/>
    <path class="cls-2" d="M306.53,32.65c16.88,53.22-22.6,69-53,61.88-26.35-9.87-60.86-33-105.95-13.94C124,90.92,102.55,107.83,91.37,155c-3.68-21.35-1.87-41.15,5.27-59.49,22.39-79.23,131.82-131,206.64-66a57.47,57.47,0,0,1,10.48,12.29,60.42,60.42,0,0,0-3.6-5c-.35-.45-.71-.88-1.09-1.33s-.7-.8-1.05-1.2S307,33.17,306.53,32.65Z"/>
    <path class="cls-3" d="M322.82,66.74c-.05-.44-.12-.87-.19-1.31s-.16-1-.26-1.55-.16-.9-.25-1.33c-.35-1.71-.76-3.38-1.25-5-.12-.46-.26-.93-.42-1.38a.19.19,0,0,0,0-.09,2.46,2.46,0,0,0-.16-.48c-.09-.33-.21-.66-.33-1s-.14-.42-.21-.63-.15-.43-.24-.64l-.31-.84c-.16-.4-.32-.8-.47-1.2,0-.08-.07-.17-.12-.26-.28-.67-.56-1.33-.87-2-.09-.19-.18-.38-.28-.57-.16-.36-.33-.73-.52-1.08a.68.68,0,0,0-.09-.17c-.4-.84-.83-1.63-1.29-2.45,0-.07-.08-.14-.14-.23-.19-.35-.4-.69-.6-1.06-.11-.15-.2-.33-.32-.5-.22-.38-.47-.78-.71-1.17a60.42,60.42,0,0,0-3.6-5c-.35-.45-.71-.9-1.09-1.33L308,34.25c-.48-.54-1-1.08-1.49-1.6,16.88,53.22-22.6,69-53,61.88-26.35-9.87-60.86-33-105.95-13.94C124,90.92,102.55,107.83,91.37,155l11.25-16.19h0c.35-.68.7-1.38,1.06-2.06a84.56,84.56,0,0,1,28.13-30.07c1.27-.82,2.55-1.6,3.87-2.35,21.13-12.16,48.7-15.61,76.51,2.33,22.65,20.15,39.34,29.57,61.29,25.85,2.09-.36,4.24-.83,6.43-1.42l1.69-.47c2.78-.84,5.67-1.85,8.66-3.06,1.34-.49,2.62-1.05,3.89-1.64l1.86-.93c1.22-.67,2.4-1.36,3.55-2.11a50.7,50.7,0,0,0,17.56-20.16c.4-.77.76-1.55,1.09-2.35.23-.5.45-1,.64-1.53.35-.83.68-1.67,1-2.5a63.78,63.78,0,0,0,2.73-10.61c.12-.74.22-1.49.31-2.26a5.29,5.29,0,0,0,.09-.71c.07-.5.12-1,.15-1.55a.28.28,0,0,0,0-.14c0-.38.05-.74.09-1.13A63,63,0,0,0,322.82,66.74Z"/>
    <path class="cls-2" d="M26.46,211.53c37.66-41.24,71.08-14.95,80.08,14.93,4.63,27.75,1.89,69.18,40.9,98.72,20.77,15.31,46.12,25.4,92.52,11.52-16.64,13.87-34.69,22.2-54.15,25.18C106,382.11,6.42,313.24,25.35,215.92a57.21,57.21,0,0,1,5.4-15.22c-.92,1.82-1.77,3.67-2.52,5.61-.22.53-.41,1.06-.61,1.62s-.35,1-.52,1.5C26.88,210.12,26.66,210.83,26.46,211.53Z"/>
    <path class="cls-3" d="M47.84,180.38c-.35.26-.69.54-1,.81s-.81.65-1.21,1-.71.59-1,.88c-1.3,1.16-2.54,2.35-3.74,3.61-.33.33-.67.68-1,1,0,0,0,0-.06.07a2.43,2.43,0,0,0-.34.38,10.38,10.38,0,0,0-.69.78c-.16.15-.3.33-.44.49s-.3.36-.44.54l-.56.68-.81,1a1.43,1.43,0,0,0-.16.24c-.45.58-.88,1.15-1.3,1.75-.12.17-.24.34-.36.53s-.46.65-.67,1a.57.57,0,0,0-.11.16c-.52.76-1,1.54-1.48,2.34a1.71,1.71,0,0,1-.12.23c-.21.34-.4.69-.62,1.06-.08.17-.19.33-.28.52-.21.39-.44.8-.65,1.2-.92,1.82-1.77,3.67-2.52,5.61-.22.53-.43,1.07-.61,1.62l-.52,1.5c-.22.69-.44,1.4-.64,2.1,37.66-41.24,71.08-14.95,80.08,14.93,4.63,27.75,1.89,69.18,40.9,98.72,20.77,15.31,46.12,25.4,92.52,11.52l-19.64-1.65h0c-.76,0-1.54.09-2.31.11a84.52,84.52,0,0,1-40.1-9.32c-1.35-.69-2.67-1.42-4-2.19-21.09-12.2-37.86-34.36-36.23-67.42,6.12-29.69,5.94-48.85-8.26-66-1.36-1.63-2.84-3.26-4.45-4.86l-1.25-1.23q-3.17-3-7-6c-1.09-.92-2.21-1.75-3.36-2.56l-1.74-1.14c-1.18-.72-2.38-1.4-3.6-2a50.65,50.65,0,0,0-26.24-5.12c-.86,0-1.72.11-2.58.22-.55.06-1.1.12-1.65.21-.89.12-1.78.25-2.65.41a63.1,63.1,0,0,0-10.55,2.94c-.71.27-1.41.55-2.11.86a3.73,3.73,0,0,0-.66.28c-.47.19-1,.41-1.42.64a.24.24,0,0,0-.13.05l-1,.49A62.78,62.78,0,0,0,47.84,180.38Z"/>
    <path class="cls-2" d="M321.41,364.63c-54.54-12-48.48-54.09-27.11-76.81,21.73-17.89,59-36.23,65.05-84.79,2.88-25.64-1.06-52.64-36.29-85.88,20.33,7.48,36.58,18.94,48.89,34.3,57.42,59,47.57,179.68-46.17,212a57.14,57.14,0,0,1-15.89,2.93,61,61,0,0,0,6.12-.62c.57-.08,1.13-.18,1.71-.28l1.56-.3C320,365,320.71,364.81,321.41,364.63Z"/>
    <path class="cls-3" d="M283.74,361.69l1.23.49c.49.2,1,.38,1.47.55l1.28.45c1.65.56,3.3,1,5,1.44.45.12.93.24,1.4.33h.09a2.24,2.24,0,0,0,.5.11c.33.09.68.15,1,.21.2.06.43.09.64.13l.68.11.88.15,1.27.19a1.42,1.42,0,0,0,.29,0c.73.1,1.44.19,2.17.25l.63.05c.4,0,.8.08,1.2.08a.62.62,0,0,0,.19,0c.92.07,1.83.09,2.77.11h1.48c.19,0,.38,0,.6,0,.44,0,.91,0,1.36,0a61,61,0,0,0,6.12-.62c.57-.08,1.14-.17,1.71-.28l1.56-.3c.71-.16,1.43-.32,2.13-.5-54.54-12-48.48-54.09-27.11-76.81,21.73-17.89,59-36.23,65.05-84.79,2.88-25.64-1.06-52.64-36.29-85.88l8.4,17.83h0c.42.64.84,1.29,1.25,1.94a84.51,84.51,0,0,1,12,39.4c.07,1.5.11,3,.09,4.53,0,24.37-10.82,50-40.27,65.09-28.77,9.54-45.27,19.28-53,40.15-.73,2-1.4,4.09-2,6.29-.14.56-.29,1.12-.44,1.69-.67,2.83-1.24,5.83-1.68,9-.24,1.4-.41,2.79-.53,4.19,0,.7-.07,1.38-.11,2.08,0,1.38,0,2.75,0,4.12a50.68,50.68,0,0,0,8.69,25.29c.46.73,1,1.43,1.48,2.12.33.45.65.9,1,1.32q.81,1.08,1.68,2.1a62.23,62.23,0,0,0,7.82,7.66c.58.48,1.18.95,1.8,1.4a4.05,4.05,0,0,0,.57.43c.4.32.83.62,1.26.91,0,0,.07.06.11.09l.94.64A63.29,63.29,0,0,0,283.74,361.69Z"/>
</svg>